# Blender v2.78 (sub 0) OBJ File: ''
# www.blender.org
mtllib Pedraozao.mtl
o Icosphere_Icosphere.001
v 1.115555 -0.029190 0.693669
v 1.723592 0.110423 1.170300
v 0.723596 0.110423 1.495224
v 0.105558 0.110427 0.644574
v 0.723596 0.110423 -0.206075
v 1.723592 0.110423 0.118849
v 1.288272 1.029463 1.459863
v 0.276377 1.004863 1.170300
v 0.442200 1.036867 0.198689
v 1.227182 0.959016 -0.210169
v 1.715610 1.116893 0.601077
v 0.999984 1.557643 0.644574
v 0.926569 -0.027549 1.154044
v 1.514159 -0.024063 0.924768
v 1.262853 0.031905 1.453586
v 1.850632 0.031907 0.644574
v 1.476406 -0.063713 0.421313
v 0.580130 0.027008 0.661603
v 0.332669 0.103840 1.134467
v 0.908676 0.024424 0.256725
v 0.317024 0.106034 0.176500
v 1.262853 0.031905 -0.164437
v 1.894889 0.654335 0.880548
v 1.887231 0.612800 0.348624
v 1.029610 0.594616 1.579556
v 1.511742 0.631501 1.460442
v 0.048927 0.557643 0.953587
v 0.500990 0.563005 1.358715
v 0.602152 0.699117 -0.105364
v 0.199219 0.601285 0.320154
v 1.563747 0.590207 -0.096496
v 0.933089 0.584495 -0.330412
v 1.571015 1.168602 1.089567
v 0.778790 1.151138 1.347193
v 0.149337 1.083379 0.644574
v 0.790309 1.014093 -0.046742
v 1.588668 1.176046 0.200504
v 1.162440 1.408297 1.144570
v 1.360967 1.499973 0.710179
v 0.620335 1.326576 0.984888
v 0.629536 1.261828 0.369641
v 1.199650 1.400272 0.265904
vn 0.0087 -0.9999 0.0071
vn 0.3338 -0.9172 0.2176
vn -0.1020 -0.9940 -0.0383
vn -0.0997 -0.9922 -0.0746
vn -0.1372 -0.9889 -0.0564
vn 0.9529 -0.1644 0.2548
vn 0.0465 -0.1998 0.9787
vn -0.8435 -0.3735 0.3860
vn -0.6851 -0.0167 -0.7283
vn 0.5375 -0.1897 -0.8216
vn 0.8333 0.0315 0.5518
vn -0.3884 0.0857 0.9175
vn -0.9729 0.0347 -0.2285
vn -0.5556 0.0276 -0.8310
vn 0.8088 0.0055 -0.5881
vn 0.4636 0.6527 0.5992
vn -0.4044 0.7412 0.5358
vn -0.5168 0.7475 -0.4174
vn -0.1622 0.7190 -0.6758
vn 0.7106 0.6928 -0.1229
vn 0.2013 0.9376 -0.2835
vn 0.4253 0.8378 -0.3424
vn 0.3007 0.7081 -0.6389
vn -0.2890 0.8204 -0.4933
vn -0.2904 0.7689 -0.5696
vn -0.3577 0.7353 -0.5756
vn -0.5777 0.8108 -0.0940
vn -0.3973 0.9120 -0.1019
vn -0.5831 0.7710 0.2561
vn -0.2393 0.9063 0.3484
vn -0.2739 0.8132 0.5135
vn -0.0188 0.6359 0.7715
vn 0.1078 0.9616 0.2522
vn 0.5041 0.7692 0.3927
vn 0.7465 0.6477 0.1524
vn 0.8847 0.4112 -0.2196
vn 0.7750 0.2592 -0.5764
vn 0.6112 0.3370 -0.7161
vn -0.2561 0.4719 -0.8436
vn -0.4163 0.4006 -0.8162
vn -0.4989 0.4373 -0.7482
vn -0.7868 0.2865 -0.5467
vn -0.9725 0.0522 -0.2271
vn -0.9050 0.3304 0.2680
vn -0.3758 0.1953 0.9059
vn -0.3878 0.2008 0.8996
vn -0.1271 0.3328 0.9344
vn 0.6641 0.3738 0.6475
vn 0.7951 0.2827 0.5365
vn 0.8636 0.4598 0.2070
vn 0.3474 0.0281 -0.9373
vn 0.3474 -0.0735 -0.9348
vn 0.0353 -0.2681 -0.9627
vn -0.7325 0.2299 -0.6408
vn -0.7288 0.0251 -0.6843
vn -0.9073 -0.0972 -0.4090
vn -0.6671 -0.0216 0.7447
vn -0.6619 -0.1188 0.7401
vn -0.6730 -0.1104 0.7313
vn 0.2285 0.1297 0.9649
vn 0.2465 -0.1133 0.9625
vn 0.5379 -0.2325 0.8103
vn 0.9396 0.3400 -0.0401
vn 0.9977 -0.0675 -0.0091
vn 0.9473 -0.1908 -0.2574
vn 0.3178 -0.9105 -0.2645
vn -0.1190 -0.9859 -0.1176
vn -0.1331 -0.9826 -0.1294
vn -0.1173 -0.9838 -0.1359
vn -0.1235 -0.9879 -0.0939
vn -0.1704 -0.9830 -0.0677
vn -0.1751 -0.9822 0.0680
vn -0.2172 -0.9751 0.0448
vn -0.2169 -0.9430 0.2523
vn 0.3641 -0.9043 -0.2230
vn 0.2129 -0.9752 0.0608
vn -0.0342 -0.9961 0.0810
vn -0.1130 -0.9427 0.3140
vn 0.0574 -0.9896 0.1320
vn 0.3062 -0.9204 0.2429
usemtl None
s off
f 1//1 14//1 13//1
f 2//2 14//2 16//2
f 1//3 13//3 18//3
f 1//4 18//4 20//4
f 1//5 20//5 17//5
f 2//6 16//6 23//6
f 3//7 15//7 25//7
f 4//8 19//8 27//8
f 5//9 21//9 29//9
f 6//10 22//10 31//10
f 2//11 23//11 26//11
f 3//12 25//12 28//12
f 4//13 27//13 30//13
f 5//14 29//14 32//14
f 6//15 31//15 24//15
f 7//16 33//16 38//16
f 8//17 34//17 40//17
f 9//18 35//18 41//18
f 10//19 36//19 42//19
f 11//20 37//20 39//20
f 39//21 42//21 12//21
f 39//22 37//22 42//22
f 37//23 10//23 42//23
f 42//24 41//24 12//24
f 42//25 36//25 41//25
f 36//26 9//26 41//26
f 41//27 40//27 12//27
f 41//28 35//28 40//28
f 35//29 8//29 40//29
f 40//30 38//30 12//30
f 40//31 34//31 38//31
f 34//32 7//32 38//32
f 38//33 39//33 12//33
f 38//34 33//34 39//34
f 33//35 11//35 39//35
f 24//36 37//36 11//36
f 24//37 31//37 37//37
f 31//38 10//38 37//38
f 32//39 36//39 10//39
f 32//40 29//40 36//40
f 29//41 9//41 36//41
f 30//42 35//42 9//42
f 30//43 27//43 35//43
f 27//44 8//44 35//44
f 28//45 34//45 8//45
f 28//46 25//46 34//46
f 25//47 7//47 34//47
f 26//48 33//48 7//48
f 26//49 23//49 33//49
f 23//50 11//50 33//50
f 31//51 32//51 10//51
f 31//52 22//52 32//52
f 22//53 5//53 32//53
f 29//54 30//54 9//54
f 29//55 21//55 30//55
f 21//56 4//56 30//56
f 27//57 28//57 8//57
f 27//58 19//58 28//58
f 19//59 3//59 28//59
f 25//60 26//60 7//60
f 25//61 15//61 26//61
f 15//62 2//62 26//62
f 23//63 24//63 11//63
f 23//64 16//64 24//64
f 16//65 6//65 24//65
f 17//66 22//66 6//66
f 17//67 20//67 22//67
f 20//68 5//68 22//68
f 20//69 21//69 5//69
f 20//70 18//70 21//70
f 18//71 4//71 21//71
f 18//72 19//72 4//72
f 18//73 13//73 19//73
f 13//74 3//74 19//74
f 16//75 17//75 6//75
f 16//76 14//76 17//76
f 14//77 1//77 17//77
f 13//78 15//78 3//78
f 13//79 14//79 15//79
f 14//80 2//80 15//80
